<svg xmlns="http://www.w3.org/2000/svg" viewBox="0 0 118 94" width="48" height="48">
  <rect width="118" height="94" rx="14" fill="#7952b3"/>
  <path fill="white" d="M29 13h34.5c8.5 0 15 2 19.5 6s6.5 9.5 6.5 16.5c0 5-1.3 9.3-4 12.8s-6.5 5.8-11.5 6.8v.5c6.3 1 11 3.4 14.3 7.2s5 8.7 5 14.7c0 4.5-1 8.5-3 12s-4.8 6.5-8.5 8.8-8 3.8-13 5-10.5 1.7-16.5 1.7H29V13zm20 35h13c4.8 0 8.5-1 11-3s3.8-5 3.8-9c0-3.8-1.2-6.7-3.5-8.5S67.3 25 61.5 25H49v23zm0 35h15.5c5.3 0 9.3-1.2 12-3.5s4-5.8 4-10.5c0-4.5-1.4-7.8-4.3-10S69.8 56 64 56H49v27z"/>
</svg>
