<svg xmlns="http://www.w3.org/2000/svg" width="800" height="450" viewBox="0 0 800 450">
  <!-- Background -->
  <rect width="800" height="450" fill="#0f1117"/>

  <!-- Title -->
  <text x="400" y="42" font-family="monospace" font-size="13" fill="#22c55e" text-anchor="middle">NYC Street Safety Score  Model Architecture</text>Prediction 

  <!-- Panel 1: Input Features -->
  <rect x="40" y="60" width="220" height="340" rx="8" fill="#1c1f2e"/>
  <text x="150" y="90" font-family="monospace" font-size="11" fill="#8b8fa8" text-anchor="middle">INPUT FEATURES</text>
  <rect x="60" y="102" width="180" height="22" rx="4" fill="#2d3250"/>
  <text x="150" y="117" font-family="monospace" font-size="10" fill="#60a5fa" text-anchor="middle">lat / lng / zip</text>
  <rect x="60" y="130" width="180" height="22" rx="4" fill="#2d3250"/>
  <text x="150" y="145" font-family="monospace" font-size="10" fill="#60a5fa" text-anchor="middle">incidents_per_hour</text>
  <rect x="60" y="158" width="180" height="22" rx="4" fill="#2d3250"/>
  <text x="150" y="173" font-family="monospace" font-size="10" fill="#60a5fa" text-anchor="middle">unique_incidents_count</text>
  <rect x="60" y="186" width="180" height="22" rx="4" fill="#2d3250"/>
  <text x="150" y="201" font-family="monospace" font-size="10" fill="#60a5fa" text-anchor="middle">injury / death counts</text>
  <rect x="60" y="214" width="180" height="22" rx="4" fill="#2d3250"/>
  <text x="150" y="229" font-family="monospace" font-size="10" fill="#60a5fa" text-anchor="middle">complaint_type</text>
  <rect x="60" y="242" width="180" height="22" rx="4" fill="#2d3250"/>
  <text x="150" y="257" font-family="monospace" font-size="10" fill="#60a5fa" text-anchor="middle">descriptor / status</text>
  <text x="150" y="290" font-family="monospace" font-size="10" fill="#4b5563" text-anchor="middle">123 total features</text>
  <text x="150" y="308" font-family="monospace" font-size="10" fill="#4b5563" text-anchor="middle">26,271 rows</text>

  <!-- Panel 2: Neural Network -->
  <rect x="290" y="60" width="220" height="340" rx="8" fill="#1c1f2e"/>
  <text x="400" y="90" font-family="monospace" font-size="11" fill="#8b8fa8" text-anchor="middle">NEURAL NETWORK</text>
  <rect x="310" y="102" width="180" height="28" rx="4" fill="#374151"/>
  <text x="400" y="120" font-family="monospace" font-size="10" fill="#d1d5db" text-anchor="middle">Normalization</text>
  <rect x="310" y="142" width="180" height="28" rx="4" fill="#1e3a5f"/>
  <text x="400" y="160" font-family="monospace" font-size="10" fill="#93c5fd" text-anchor="middle">Dense(320, relu) + L2</text>
  <rect x="310" y="180" width="180" height="20" rx="4" fill="#312e81"/>
  <text x="400" y="194" font-family="monospace" font-size="9" fill="#a5b4fc" text-anchor="middle">Dropout(0.3) + BatchNorm</text>
  <rect x="310" y="210" width="180" height="28" rx="4" fill="#1e3a5f"/>
  <text x="400" y="228" font-family="monospace" font-size="10" fill="#93c5fd" text-anchor="middle">Dense(64, relu) + L2</text>
  <rect x="310" y="248" width="180" height="20" rx="4" fill="#312e81"/>
  <text x="400" y="262" font-family="monospace" font-size="9" fill="#a5b4fc" text-anchor="middle">Dropout(0.3) + BatchNorm</text>
  <rect x="310" y="278" width="180" height="28" rx="4" fill="#1e3a5f"/>
  <text x="400" y="296" font-family="monospace" font-size="10" fill="#93c5fd" text-anchor="middle">Dense(16, relu) + L2</text>
  <rect x="310" y="316" width="180" height="28" rx="4" fill="#14532d"/>
  <text x="400" y="334" font-family="monospace" font-size="10" fill="#4ade80" text-anchor="middle">Dense(11, softmax)</text>
  <text x="400" y="375" font-family="monospace" font-size="10" fill="#4b5563" text-anchor="middle">Keras Tuner Hyperband</text>
  <text x="400" y="393" font-family="monospace" font-size="10" fill="#4b5563" text-anchor="middle">30 hyperparameter trials</text>

  <!-- Panel 3: Results -->
  <rect x="540" y="60" width="220" height="340" rx="8" fill="#1c1f2e"/>
  <text x="650" y="90" font-family="monospace" font-size="11" fill="#8b8fa8" text-anchor="middle">RESULTS</text>
  <text x="650" y="126" font-family="monospace" font-size="11" fill="#9ca3af" text-anchor="middle">Val Accuracy</text>
  <text x="650" y="158" font-family="monospace" font-size="36" fill="#4ade80" text-anchor="middle" font-weight="bold">96.7%</text>
  <rect x="560" y="170" width="180" height="4" rx="2" fill="#374151"/>
  <rect x="560" y="170" width="174" height="4" rx="2" fill="#4ade80"/>
  <text x="650" y="210" font-family="monospace" font-size="11" fill="#9ca3af" text-anchor="middle">F1-Macro Score</text>
  <text x="650" y="242" font-family="monospace" font-size="36" fill="#60a5fa" text-anchor="middle" font-weight="bold">0.82</text>
  <rect x="560" y="254" width="180" height="4" rx="2" fill="#374151"/>
  <rect x="560" y="254" width="148" height="4" rx="2" fill="#60a5fa"/>
  <text x="650" y="294" font-family="monospace" font-size="11" fill="#9ca3af" text-anchor="middle">Early Stopping Epoch</text>
  <text x="650" y="326" font-family="monospace" font-size="36" fill="#f59e0b" text-anchor="middle" font-weight="bold">44</text>
  <text x="650" y="350" font-family="monospace" font-size="10" fill="#6b7280" text-anchor="middle">of 200 max epochs</text>

  <!-- Footer tech badges -->
  <text x="400" y="428" font-family="monospace" font-size="10" fill="#4b5563" text-anchor="middle">                     scikit-              NYC Open Data</text>Pandas learn Keras TensorFlow Python 
</svg>