<svg xmlns="http://www.w3.org/2000/svg" viewBox="0 0 400 400" width="48" height="48">
  <rect width="400" height="400" rx="50" fill="#3178c6"/>
  <path fill="white" d="M87.2 187.2H154v16h-25.6V296H109V203.2H87.2v-16zM215 296v-12.4c3.6 2 7.6 3.5 12 4.5s8.8 1.5 13 1.5c2 0 3.9-.2 5.6-.5s3.1-.8 4.3-1.5c1.2-.6 2.1-1.5 2.8-2.5.6-1 1-2.2 1-3.6 0-1.7-.5-3.2-1.4-4.5s-2.3-2.5-4-3.6-3.8-2.1-6.2-3.1-5.1-2-8.1-3.1c-4.3-1.7-8-3.4-11.2-5.3s-5.8-4-7.9-6.4-3.7-5.1-4.7-8.2-1.5-6.6-1.5-10.6c0-5 1-9.3 2.9-12.9s4.5-6.6 7.7-9 6.9-4.1 11.1-5.2 8.5-1.7 13-1.7c4.6 0 8.8.3 12.5.9s6.9 1.4 9.6 2.4v12c-3-1.5-6.2-2.7-9.7-3.5s-6.9-1.2-10.3-1.2c-2 0-3.8.2-5.5.6s-3.1.9-4.4 1.7-2.2 1.7-2.9 2.8-.9 2.4-.9 3.9c0 1.6.4 3 1.2 4.2s2 2.3 3.5 3.3 3.5 2 5.8 3 5 2.1 8 3.3c4.4 1.7 8.3 3.5 11.6 5.4s6.1 4 8.3 6.4 3.9 5.1 5 8.2 1.7 6.6 1.7 10.7c0 5.3-1 9.8-3 13.4s-4.7 6.6-8 8.8-7.1 3.8-11.5 4.8-9 1.5-13.7 1.5c-5.1 0-9.8-.5-14.1-1.6s-7.7-2.4-10.3-4z"/>
</svg>
