<svg xmlns="http://www.w3.org/2000/svg" width="800" height="450" viewBox="0 0 800 450">
  <rect width="800" height="450" fill="#1a1f2e"/>
  <rect x="40" y="40" width="340" height="200" rx="8" fill="#242c3d"/>
  <rect x="420" y="40" width="340" height="90" rx="8" fill="#242c3d"/>
  <rect x="420" y="150" width="155" height="90" rx="8" fill="#242c3d"/>
  <rect x="605" y="150" width="155" height="90" rx="8" fill="#242c3d"/>
  <rect x="40" y="260" width="720" height="150" rx="8" fill="#242c3d"/>
  <rect x="60" y="60" width="300" height="8" rx="4" fill="#3b4a6b"/>
  <rect x="60" y="78" width="200" height="6" rx="3" fill="#2d3a55"/>
  <rect x="60" y="100" width="280" height="120" rx="4" fill="#1e2535"/>
  <path d="M80 200 L120 160 L160 175 L200 140 L240 155 L280 130 L320 145" stroke="#4ade80" stroke-width="2.5" fill="none"/>
  <circle cx="120" cy="160" r="4" fill="#4ade80"/>
  <circle cx="200" cy="140" r="4" fill="#4ade80"/>
  <circle cx="280" cy="130" r="4" fill="#4ade80"/>
  <rect x="440" y="58" width="120" height="6" rx="3" fill="#3b4a6b"/>
  <rect x="440" y="72" width="200" height="4" rx="2" fill="#2d3a55"/>
  <rect x="440" y="82" width="260" height="36" rx="4" fill="#1e2535"/>
  <rect x="452" y="88" width="80" height="24" rx="4" fill="#3b82f6" opacity="0.8"/>
  <rect x="544" y="88" width="60" height="24" rx="4" fill="#1d4ed8" opacity="0.5"/>
  <rect x="440" y="168" width="115" height="6" rx="3" fill="#3b4a6b"/>
  <rect x="440" y="182" width="115" height="44" rx="4" fill="#1e2535"/>
  <text x="498" y="210" font-family="monospace" font-size="18" fill="#4ade80" text-anchor="middle">$2.4B</text>
  <rect x="625" y="168" width="115" height="6" rx="3" fill="#3b4a6b"/>
  <rect x="625" y="182" width="115" height="44" rx="4" fill="#1e2535"/>
  <text x="683" y="210" font-family="monospace" font-size="18" fill="#60a5fa" text-anchor="middle">847</text>
  <rect x="60" y="276" width="120" height="6" rx="3" fill="#3b4a6b"/>
  <rect x="60" y="294" width="680" height="90" rx="4" fill="#1e2535"/>
  <rect x="75" y="308" width="40" height="60" rx="2" fill="#3b82f6" opacity="0.7"/>
  <rect x="130" y="320" width="40" height="48" rx="2" fill="#3b82f6" opacity="0.7"/>
  <rect x="185" y="300" width="40" height="68" rx="2" fill="#3b82f6" opacity="0.9"/>
  <rect x="240" y="314" width="40" height="54" rx="2" fill="#3b82f6" opacity="0.6"/>
  <rect x="295" y="308" width="40" height="60" rx="2" fill="#3b82f6" opacity="0.8"/>
  <rect x="350" y="322" width="40" height="46" rx="2" fill="#3b82f6" opacity="0.5"/>
  <text x="400" y="425" font-family="Arial,sans-serif" font-size="14" fill="#6b7280" text-anchor="middle">MTA Capital Plan  capitaldashboard.mta.info</text>Dashboard 
</svg>
